# xmcd
#
# Track frame offsets:
#	150
#	16562
#	34575
#	55400
#	76037
#	96175
#	117387
#	142387
#	168512
#	194237
#	215887
#	236575
#	255912
#	273737
#	291687
#	307975
#	326962
#
# Disc length: 4633 seconds
#
# Revision: 3
# Processed by: cddbd v1.5.2PL0 Copyright (c) Steve Scherf et al.
# Submitted via: EasyCDDAExtractor 12.0.7.1
#
DISCID=09121711
DTITLE=Various Artist - The Feeling Of Body and Soul The Ballads Vol. 1 CD-2
DYEAR=1997
DGENRE=Ballad
TTITLE0=Vanessa Williams -  Save The Best For Last 
TTITLE1=Lionel Ritchie -  Say You, Say Me
TTITLE2=TLC - Waterfalls 
TTITLE3=Prince and The New Power Generation - Diamonds and Pearls
TTITLE4=Earth, Wind and Fire - After The Love Has Gone
TTITLE5=Kool and The Gang - Cherish
TTITLE6=Tina Turner - In Your Wildest Dreams
TTITLE7=Gladys Knight - I Don't Want To Know
TTITLE8=Isley Jasper Isley - Caravan Of Love
TTITLE9=Barry White - Just The Way You Are
TTITLE10=Regina Belle - You Make Me Feel Brand New
TTITLE11=Dionne Warwick - Heartbreaker
TTITLE12=Toni Toni Tone - Anniversary
TTITLE13=Jodeci -  Freek'n You 
TTITLE14=Oleta Adams - I Just Had To Hear Your Voice
TTITLE15=Patti Labelle - When You've Been Blessed (Feels Like Heaven)
TTITLE16=James Ingram - Treat Her Right
EXTD=YEAR: 1997
EXTT0=
EXTT1=
EXTT2=
EXTT3=
EXTT4=
EXTT5=
EXTT6=
EXTT7=
EXTT8=
EXTT9=
EXTT10=
EXTT11=
EXTT12=
EXTT13=
EXTT14=
EXTT15=
EXTT16=
PLAYORDER=
